<svg width="32" height="32" viewBox="0 0 32 32" fill="none" xmlns="http://www.w3.org/2000/svg">
<path d="M29.8667 12.5884H29.3333C29.3299 11.8905 28.8745 11.2754 28.208 11.0684C27.5916 4.78798 22.3106 0 16 0C9.6894 0 4.40845 4.78798 3.792 11.0684C3.12554 11.2754 2.67015 11.8905 2.66667 12.5884H2.13333C0.955126 12.5884 0 13.5435 0 14.7217V18.9884C0 20.1666 0.955126 21.1217 2.13333 21.1217H2.66667C2.66667 22.0054 3.38301 22.7217 4.26667 22.7217H4.8V24.8551C4.8 27.506 6.94903 29.6551 9.6 29.6551H11.2747C11.5172 30.5945 12.3631 31.2519 13.3333 31.2551H18.6667C19.8449 31.2551 20.8 30.2999 20.8 29.1217C20.8 27.9435 19.8449 26.9884 18.6667 26.9884H13.3333C12.3631 26.9916 11.5172 27.649 11.2747 28.5884H9.6C7.53814 28.5884 5.86667 26.9169 5.86667 24.8551V22.7217H6.4C7.28366 22.7217 8 22.0054 8 21.1217V12.5884C7.99933 11.936 7.60259 11.3493 6.99733 11.1057C7.54191 6.54671 11.4086 3.11444 16 3.11444C20.5914 3.11444 24.4581 6.54671 25.0027 11.1057C24.3974 11.3493 24.0007 11.936 24 12.5884V21.1217C24 22.0054 24.7163 22.7217 25.6 22.7217H27.7333C28.617 22.7217 29.3333 22.0054 29.3333 21.1217H29.8667C31.0449 21.1217 32 20.1666 32 18.9884V14.7217C32 13.5435 31.0449 12.5884 29.8667 12.5884ZM13.3333 28.0551H18.6667C19.2558 28.0551 19.7333 28.5326 19.7333 29.1217C19.7333 29.7108 19.2558 30.1884 18.6667 30.1884H13.3333C12.7442 30.1884 12.2667 29.7108 12.2667 29.1217C12.2667 28.5326 12.7442 28.0551 13.3333 28.0551ZM2.13333 20.0551C1.54423 20.0551 1.06667 19.5775 1.06667 18.9884V14.7217C1.06667 14.1326 1.54423 13.6551 2.13333 13.6551H2.66667V20.0551H2.13333ZM6.93333 21.1217C6.93333 21.4163 6.69455 21.6551 6.4 21.6551H4.26667C3.97212 21.6551 3.73333 21.4163 3.73333 21.1217V12.5884C3.73333 12.2938 3.97212 12.0551 4.26667 12.0551H6.4C6.69455 12.0551 6.93333 12.2938 6.93333 12.5884V21.1217ZM16 1.92173C10.8214 1.92839 6.48111 5.83858 5.936 10.9884H4.86933C5.50304 5.31962 10.2959 1.03269 16 1.03269C21.7041 1.03269 26.497 5.31962 27.1307 10.9884H26.064C25.5189 5.83858 21.1786 1.92839 16 1.92173ZM28.2667 21.1217C28.2667 21.4163 28.0279 21.6551 27.7333 21.6551H25.6C25.3054 21.6551 25.0667 21.4163 25.0667 21.1217V12.5884C25.0667 12.2938 25.3054 12.0551 25.6 12.0551H27.7333C28.0279 12.0551 28.2667 12.2938 28.2667 12.5884V21.1217ZM30.9333 18.9884C30.9333 19.5775 30.4558 20.0551 29.8667 20.0551H29.3333V13.6551H29.8667C30.4558 13.6551 30.9333 14.1326 30.9333 14.7217V18.9884Z" fill="#264B82"/>
</svg>
