<svg width="30" height="21" viewBox="0 0 30 21" fill="none" xmlns="http://www.w3.org/2000/svg">
<path d="M22.6575 13.2353C20.5723 13.2353 18.876 14.9316 18.876 17.0168C18.876 19.102 20.5723 20.7983 22.6575 20.7983C24.743 20.7983 26.439 19.102 26.439 17.0168C26.439 14.9316 24.7427 13.2353 22.6575 13.2353ZM22.6575 18.9076C21.6148 18.9076 20.7667 18.0595 20.7667 17.0168C20.7667 15.9741 21.6148 15.126 22.6575 15.126C23.7002 15.126 24.5483 15.9741 24.5483 17.0168C24.5483 18.0596 23.7002 18.9076 22.6575 18.9076Z" fill="#264B82"/>
<path d="M9.73758 13.2353C7.6524 13.2353 5.95605 14.9316 5.95605 17.0168C5.95605 19.102 7.6524 20.7983 9.73758 20.7983C11.8228 20.7983 13.5191 19.102 13.5191 17.0168C13.5191 14.9316 11.8228 13.2353 9.73758 13.2353ZM9.73758 18.9076C8.69484 18.9076 7.84682 18.0595 7.84682 17.0168C7.84682 15.9741 8.69484 15.126 9.73758 15.126C10.78 15.126 11.6283 15.9741 11.6283 17.0168C11.6283 18.0596 10.7803 18.9076 9.73758 18.9076Z" fill="#264B82"/>
<path d="M25.2042 2.41137C25.0435 2.09215 24.7167 1.89076 24.3594 1.89076H19.3804V3.78152H23.7764L26.3506 8.90168L28.0404 8.05207L25.2042 2.41137Z" fill="#264B82"/>
<path d="M19.8213 16.103H12.668V17.9937H19.8213V16.103Z" fill="#264B82"/>
<path d="M6.90133 16.103H3.62406C3.10188 16.103 2.67871 16.5262 2.67871 17.0483C2.67871 17.5705 3.10193 17.9937 3.62406 17.9937H6.90139C7.42358 17.9937 7.84674 17.5705 7.84674 17.0483C7.84674 16.5261 7.42352 16.103 6.90133 16.103Z" fill="#264B82"/>
<path d="M29.8016 10.3235L27.9421 7.92856C27.7634 7.69787 27.4877 7.56299 27.1955 7.56299H20.3257V0.945352C20.3257 0.423164 19.9025 0 19.3804 0H3.62406C3.10188 0 2.67871 0.423223 2.67871 0.945352C2.67871 1.46748 3.10193 1.8907 3.62406 1.8907H18.435V8.50834C18.435 9.03053 18.8582 9.45369 19.3803 9.45369H26.7326L28.1093 11.2272V16.1029H25.4938C24.9716 16.1029 24.5484 16.5261 24.5484 17.0482C24.5484 17.5704 24.9716 17.9936 25.4938 17.9936H29.0547C29.5769 17.9936 30 17.5703 30.0001 17.0482V10.9034C30.0001 10.6935 29.9301 10.4893 29.8016 10.3235Z" fill="#264B82"/>
<path d="M6.83807 11.313H2.4893C1.96711 11.313 1.54395 11.7363 1.54395 12.2584C1.54395 12.7806 1.96717 13.2038 2.4893 13.2038H6.83801C7.3602 13.2038 7.78336 12.7805 7.78336 12.2584C7.78342 11.7363 7.3602 11.313 6.83807 11.313Z" fill="#264B82"/>
<path d="M9.0126 7.59451H0.945352C0.423223 7.59451 0 8.01774 0 8.53992C0 9.06211 0.423223 9.48528 0.945352 9.48528H9.0126C9.53479 9.48528 9.95795 9.06205 9.95795 8.53992C9.95795 8.01779 9.53479 7.59451 9.0126 7.59451Z" fill="#264B82"/>
<path d="M10.5565 3.87604H2.4893C1.96711 3.87604 1.54395 4.29926 1.54395 4.82139C1.54395 5.34358 1.96717 5.76674 2.4893 5.76674H10.5565C11.0787 5.76674 11.5019 5.34352 11.5019 4.82139C11.502 4.29926 11.0787 3.87604 10.5565 3.87604Z" fill="#264B82"/>
</svg>
