<svg width="8" height="13" viewBox="0 0 8 13" fill="none" xmlns="http://www.w3.org/2000/svg">
<path fill-rule="evenodd" clip-rule="evenodd" d="M7.68733 6.56388C7.83314 6.42928 7.88926 6.22738 7.84436 6.04795C7.79949 5.85723 7.65368 5.70019 7.47414 5.64407L4.72609 4.72431L6.67779 0.809688C6.80117 0.562958 6.72262 0.271325 6.49829 0.103038C6.34144 -0.0067477 6.14616 -0.0288098 5.97771 0.0368895C5.90523 0.0651401 5.83771 0.109635 5.78036 0.170376L3.92957 2.02116V2.02122L0.172129 5.77867C0.0263127 5.91327 -0.0298079 6.11525 0.0150961 6.29468C0.0599628 6.48536 0.205779 6.64239 0.385283 6.69848L3.13333 7.61824L1.18163 11.5329C1.05825 11.7797 1.1368 12.0713 1.36113 12.2395C1.58543 12.3965 1.88831 12.3741 2.07896 12.1722L3.92975 10.3215L7.68733 6.56388Z" fill="url(#paint0_linear)"/>
<defs>
<linearGradient id="paint0_linear" x1="1.96171e-08" y1="6.25143" x2="7.85946" y2="6.25143" gradientUnits="userSpaceOnUse">
<stop stop-color="#CB2D3E"/>
<stop offset="1" stop-color="#EF473A"/>
</linearGradient>
</defs>
</svg>
