<svg width="12" height="15" viewBox="0 0 12 15" fill="none" xmlns="http://www.w3.org/2000/svg">
<path d="M0.199742 7.17739C0.199742 7.17739 0.781177 8.03158 1.99981 8.75461C1.99981 8.75461 1.11722 1.29547 6.86785 0C5.39451 5.40736 8.74196 6.93232 9.96217 4.0755C11.9999 6.79616 10.4527 9.16978 10.4527 9.16978C11.2883 9.29016 11.9902 8.37731 11.9902 8.37731C11.9964 8.48976 11.9999 8.60298 11.9999 8.71701C12 12.0307 9.31368 14.717 5.99998 14.717C2.68628 14.717 0 12.0307 0 8.71698C0 8.1847 0.0696755 7.66874 0.199742 7.17739Z" fill="#FF421D"/>
<path d="M11.9902 8.37731C11.9902 8.37731 11.2883 9.29016 10.4528 9.16978C10.4528 9.16978 12 6.79616 9.96222 4.0755C8.74201 6.93232 5.39456 5.40736 6.8679 0C6.55991 0.0693881 6.27109 0.156569 6 0.259214V14.717C9.3137 14.717 12 12.0307 12 8.71698C12 8.60295 11.9965 8.48976 11.9902 8.37731Z" fill="#FF421D"/>
<path d="M3.36865 12.0856C3.36865 13.5388 4.54676 14.7169 6 14.7169C7.45324 14.7169 8.63134 13.5388 8.63134 12.0856C8.63134 11.3078 8.29386 10.6088 7.75729 10.127C6.73993 11.5092 5.29013 9.41258 6.42001 7.8815C6.42001 7.8815 3.36865 8.26388 3.36865 12.0856Z" fill="#FFA900"/>
<path d="M8.63135 12.0856C8.63135 11.3078 8.29386 10.6088 7.7573 10.127C6.73993 11.5092 5.29014 9.41258 6.42001 7.8815C6.42001 7.8815 6.25421 7.90234 6 7.98256V14.7169C7.45324 14.7169 8.63135 13.5388 8.63135 12.0856Z" fill="#FFA900"/>
</svg>
