<svg width="29" height="29" viewBox="0 0 29 29" fill="none" xmlns="http://www.w3.org/2000/svg">
<path d="M0.859119 28.163C1.38285 28.6868 2.06911 28.9486 2.75548 28.9486C3.44186 28.9486 4.12824 28.6867 4.65185 28.163L14.5108 18.304L24.3699 28.163C24.8935 28.6868 25.5798 28.9486 26.2662 28.9486C26.9526 28.9486 27.6388 28.6867 28.1626 28.163C29.2099 27.1159 29.2099 25.4177 28.1626 24.3703L18.3034 14.5114L28.1623 4.65233C29.2097 3.60499 29.2097 1.90683 28.1623 0.859606C27.1152 -0.18774 25.4171 -0.18774 24.3697 0.859606L14.5107 10.7187L4.65172 0.859606C3.60438 -0.18774 1.90621 -0.18774 0.858995 0.859606C-0.18835 1.90695 -0.18835 3.60499 0.858995 4.65233L10.7181 14.5114L0.858995 24.3703C-0.188225 25.4177 -0.188226 27.1159 0.859119 28.163Z" fill="url(#paint0_linear)"/>
<path d="M26.2552 28.9999C25.522 28.9999 24.8329 28.7144 24.3146 28.1958L14.4998 18.3811L4.68519 28.1958C4.16684 28.7144 3.47759 28.9999 2.74451 28.9999C2.01143 28.9999 1.32217 28.7144 0.80382 28.1958C0.285469 27.6775 0 26.9883 0 26.2554C0 25.5223 0.285469 24.8332 0.80382 24.3147L10.6186 14.4999L0.80382 4.6852C-0.266187 3.61506 -0.266187 1.87395 0.80382 0.80382C1.32217 0.285469 2.0113 0 2.74451 0C3.47759 0 4.16684 0.285469 4.68519 0.80382L14.4999 10.6186L24.3147 0.80382C24.8332 0.285469 25.5223 0 26.2554 0C26.9883 0 27.6775 0.285469 28.1958 0.80382C28.7143 1.32217 28.9996 2.01143 28.9996 2.74451C28.9996 3.47759 28.7143 4.16685 28.1958 4.6852L18.3811 14.4999L28.1961 24.3147C28.7145 24.8332 29 25.5223 29 26.2554C29 26.9883 28.7145 27.6775 28.1961 28.1958C27.6773 28.7143 26.9882 28.9999 26.2552 28.9999ZM14.4998 18.204L24.4031 28.1073C24.8976 28.6021 25.5555 28.8747 26.2552 28.8747C26.9548 28.8747 27.6126 28.6021 28.1074 28.1073C28.6021 27.6127 28.8747 26.955 28.8747 26.2554C28.8747 25.5557 28.6021 24.8979 28.1074 24.4032L18.2039 14.4999L28.1072 4.59668C28.6018 4.10199 28.8743 3.44416 28.8743 2.74451C28.8743 2.04486 28.6018 1.38715 28.1072 0.892465C27.6126 0.397777 26.9549 0.12533 26.2552 0.12533C25.5556 0.12533 24.8978 0.397777 24.4031 0.892465L14.4998 10.7957L4.59655 0.892465C4.10186 0.397777 3.44403 0.12533 2.74438 0.12533C2.04473 0.12533 1.38703 0.397777 0.89234 0.892465C-0.128837 1.91377 -0.128837 3.57537 0.89234 4.59668L10.7956 14.4999L0.89234 24.4032C0.397653 24.8979 0.125206 25.5557 0.125206 26.2554C0.125206 26.955 0.397653 27.6127 0.89234 28.1073C1.38715 28.6021 2.04486 28.8747 2.74451 28.8747C3.44416 28.8747 4.10186 28.6021 4.59667 28.1073L14.4998 18.204Z" fill="url(#paint1_linear)"/>
<defs>
<linearGradient id="paint0_linear" x1="0.0734864" y1="14.6989" x2="28.9481" y2="14.6989" gradientUnits="userSpaceOnUse">
<stop stop-color="#CB2D3E"/>
<stop offset="1" stop-color="#EF473A"/>
</linearGradient>
<linearGradient id="paint1_linear" x1="7.23837e-08" y1="14.6883" x2="29" y2="14.6883" gradientUnits="userSpaceOnUse">
<stop stop-color="#CB2D3E"/>
<stop offset="1" stop-color="#EF473A"/>
</linearGradient>
</defs>
</svg>
