<svg width="83" height="83" viewBox="0 0 83 83" fill="none" xmlns="http://www.w3.org/2000/svg">
<path d="M70.845 12.155C63.0067 4.3168 52.5849 0 41.5 0C30.4145 0 19.9933 4.3168 12.155 12.155C4.3168 19.9933 0 30.4145 0 41.5C0 52.5849 4.3168 63.0067 12.155 70.845C19.9933 78.6832 30.4145 83 41.5 83C52.5849 83 63.0067 78.6832 70.845 70.845C78.6832 63.0067 83 52.5849 83 41.5C83 30.4145 78.6832 19.9933 70.845 12.155ZM20.8051 71.715C22.5408 61.7212 31.201 54.3497 41.5 54.3497C51.7996 54.3497 60.4592 61.7212 62.1949 71.715C56.3026 75.7633 49.1736 78.1367 41.5 78.1367C33.8264 78.1367 26.6974 75.7633 20.8051 71.715ZM28.3046 36.291C28.3046 29.0144 34.2241 23.0955 41.5 23.0955C48.7759 23.0955 54.6954 29.015 54.6954 36.291C54.6954 43.5669 48.7759 49.4864 41.5 49.4864C34.2241 49.4864 28.3046 43.5669 28.3046 36.291ZM66.4072 68.3418C65.0983 63.6894 62.4989 59.4682 58.8552 56.1709C56.6199 54.1477 54.0755 52.5513 51.3399 51.426C56.2842 48.2009 59.5594 42.6215 59.5594 36.291C59.5594 26.3333 51.4577 18.2322 41.5 18.2322C31.5423 18.2322 23.4413 26.3333 23.4413 36.291C23.4413 42.6215 26.7164 48.2009 31.6601 51.426C28.9251 52.5513 26.3801 54.1471 24.1448 56.1703C20.5018 59.4675 17.9017 63.6887 16.5928 68.3411C9.38335 61.6459 4.86328 52.0916 4.86328 41.5C4.86328 21.2984 21.2984 4.86328 41.5 4.86328C61.7016 4.86328 78.1367 21.2984 78.1367 41.5C78.1367 52.0922 73.6167 61.6465 66.4072 68.3418Z" fill="url(#paint0_linear)"/>
<defs>
<linearGradient id="paint0_linear" x1="2.07167e-07" y1="42.039" x2="83" y2="42.039" gradientUnits="userSpaceOnUse">
<stop stop-color="#CB2D3E"/>
<stop offset="1" stop-color="#EF473A"/>
</linearGradient>
</defs>
</svg>
