<svg width="36" height="18" viewBox="0 0 36 18" fill="none" xmlns="http://www.w3.org/2000/svg">
<path d="M1.12509 2.24995H34.8751C35.4962 2.24995 36.0001 1.74591 36.0001 1.12497C36.0001 0.503948 35.4961 0 34.8751 0H1.12509C0.504062 0 0.000114441 0.504041 0.000114441 1.12497C0.000114441 1.74591 0.504155 2.24995 1.12509 2.24995Z" fill="#282828"/>
<path d="M34.8751 7.875H1.125C0.503978 7.875 3.05176e-05 8.37904 3.05176e-05 8.99997C3.05176e-05 9.62091 0.504071 10.1249 1.125 10.1249H34.8751C35.4961 10.1249 36 9.62091 36 8.99997C36 8.37904 35.4961 7.875 34.8751 7.875Z" fill="#282828"/>
<path d="M34.875 15.75H12.375C11.754 15.75 11.25 16.2541 11.25 16.875C11.25 17.496 11.754 18 12.375 18H34.875C35.496 18 36 17.4959 36 16.875C36.0001 16.254 35.496 15.75 34.875 15.75Z" fill="#282828"/>
</svg>
