<svg width="79" height="72" viewBox="0 0 79 72" fill="none" xmlns="http://www.w3.org/2000/svg">
<path fill-rule="evenodd" clip-rule="evenodd" d="M23.6986 36.9681H40.9508C41.7615 36.9681 42.539 36.646 43.1122 36.0728C43.6855 35.4995 44.0075 34.722 44.0075 33.9113V9.24355C44.0075 8.42636 43.6829 7.64266 43.1051 7.06482C42.5272 6.48699 41.7435 6.16238 40.9263 6.16238C40.1092 6.16238 39.3254 6.48699 38.7476 7.06482C38.1698 7.64266 37.8451 8.42636 37.8451 9.24355V30.8057H23.6986C22.8814 30.8057 22.0977 31.1303 21.5199 31.7082C20.942 32.286 20.6174 33.0697 20.6174 33.8869C20.6174 34.7041 20.942 35.4878 21.5199 36.0656C22.0977 36.6435 22.8814 36.9681 23.6986 36.9681Z" fill="url(#paint0_linear)"/>
<path fill-rule="evenodd" clip-rule="evenodd" d="M75.7425 38.796H70.8028C69.118 38.7883 67.4793 39.3462 66.1492 40.3804C64.8191 41.4145 63.8745 42.8651 63.4666 44.4999L58.4903 64.5887C58.4191 64.8769 58.2534 65.1329 58.0195 65.3158C57.7857 65.4987 57.4972 65.5978 57.2003 65.5974H38.3648C37.9613 65.5974 37.5578 65.5668 37.1421 65.5362C36.9241 65.4748 36.7257 65.3581 36.5661 65.1974C36.4065 65.0368 36.2912 64.8376 36.2312 64.6192L33.1011 53.1504C33.0485 52.9537 33.042 52.7476 33.0819 52.5479C33.1218 52.3483 33.2071 52.1605 33.3313 51.9992C33.4554 51.8378 33.615 51.7072 33.7977 51.6174C33.9804 51.5276 34.1813 51.4811 34.3849 51.4814H51.3864C52.2052 51.4814 52.9905 51.1561 53.5695 50.5772C54.1485 49.9982 54.4737 49.2129 54.4737 48.3941C54.4737 47.5753 54.1485 46.7901 53.5695 46.2111C52.9905 45.6321 52.2052 45.3068 51.3864 45.3068H34.4032C33.2486 45.3043 32.109 45.5681 31.073 46.0778C30.0369 46.5874 29.1324 47.3292 28.4297 48.2454C27.727 49.1616 27.2452 50.2275 27.0216 51.3603C26.798 52.493 26.8386 53.6621 27.1405 54.7766L29.6898 64.1485C24.3289 62.5156 19.4676 59.5543 15.5576 55.5396C11.6476 51.5249 8.81573 46.5871 7.32505 41.1849C5.83437 35.7827 5.73324 30.0914 7.03107 24.6397C8.3289 19.188 10.9836 14.1527 14.7485 10.0016V16.329C14.7485 17.1462 15.0731 17.9299 15.651 18.5078C16.2288 19.0856 17.0125 19.4102 17.8297 19.4102C18.6469 19.4102 19.4306 19.0856 20.0084 18.5078C20.5862 17.9299 20.9109 17.1462 20.9109 16.329V9.24354C20.9092 6.79356 19.9357 4.44429 18.2039 2.71132C16.472 0.978341 14.1234 0.00323805 11.6734 0H4.62461C3.80743 0 3.02372 0.324632 2.44589 0.902466C1.86805 1.4803 1.54342 2.26401 1.54342 3.08119C1.54342 3.89837 1.86805 4.68207 2.44589 5.25991C3.02372 5.83774 3.80743 6.16237 4.62461 6.16237H9.95554C3.32062 13.6293 -0.233222 23.336 0.0118849 33.3218C0.256992 43.3077 4.28278 52.8284 11.2761 59.9608C18.3982 67.2236 26.8226 71.3868 36.9526 71.7475H37.0381H37.5395H57.2859C58.9707 71.7552 60.6094 71.1973 61.9395 70.1631C63.2696 69.129 64.2142 67.6784 64.6221 66.0437L69.5984 45.9549C69.6696 45.6666 69.8353 45.4106 70.0692 45.2277C70.3031 45.0448 70.5915 44.9457 70.8884 44.9461H75.828C76.6468 44.9461 77.4321 44.6209 78.0111 44.0419C78.5901 43.4629 78.9153 42.6776 78.9153 41.8588C78.9153 41.04 78.5901 40.2548 78.0111 39.6758C77.4321 39.0968 76.6468 38.7715 75.828 38.7715L75.7425 38.796Z" fill="url(#paint1_linear)"/>
<defs>
<linearGradient id="paint0_linear" x1="20.6174" y1="21.5652" x2="44.0075" y2="21.5652" gradientUnits="userSpaceOnUse">
<stop stop-color="#CB2D3E"/>
<stop offset="1" stop-color="#EF473A"/>
</linearGradient>
<linearGradient id="paint1_linear" x1="0" y1="35.8738" x2="78.9153" y2="35.8738" gradientUnits="userSpaceOnUse">
<stop stop-color="#CB2D3E"/>
<stop offset="1" stop-color="#EF473A"/>
</linearGradient>
</defs>
</svg>
