<svg width="25" height="21" viewBox="0 0 25 21" fill="none" xmlns="http://www.w3.org/2000/svg">
<path fill-rule="evenodd" clip-rule="evenodd" d="M17 6C18.6569 6 20 4.65685 20 3C20 1.34315 18.6569 0 17 0C15.3431 0 14 1.34315 14 3C14 4.65685 15.3431 6 17 6ZM17 4C17.5523 4 18 3.55228 18 3C18 2.44772 17.5523 2 17 2C16.4477 2 16 2.44772 16 3C16 3.55228 16.4477 4 17 4Z" fill="#264B82"/>
<path fill-rule="evenodd" clip-rule="evenodd" d="M1 17C0.447715 17 0 17.4477 0 18C0 18.5523 0.447716 19 1 19H17H24C24.5523 19 25 18.5523 25 18C25 17.4477 24.5523 17 24 17H17H1ZM17 17C17.5523 17 18 17.4477 18 18C18 18.5523 17.5523 19 17 19C16.4477 19 16 18.5523 16 18C16 17.4477 16.4477 17 17 17Z" fill="#264B82"/>
<path fill-rule="evenodd" clip-rule="evenodd" d="M1 9C0.447715 9 0 9.44772 0 10C0 10.5523 0.447716 11 1 11H8H24C24.5523 11 25 10.5523 25 10C25 9.44772 24.5523 9 24 9H8H1ZM8 9C8.55229 9 9 9.44772 9 10C9 10.5523 8.55229 11 8 11C7.44772 11 7 10.5523 7 10C7 9.44772 7.44772 9 8 9Z" fill="#264B82"/>
<path fill-rule="evenodd" clip-rule="evenodd" d="M8 13C9.65685 13 11 11.6569 11 10C11 8.34315 9.65685 7 8 7C6.34315 7 5 8.34315 5 10C5 11.6569 6.34315 13 8 13ZM8 11C8.55228 11 9 10.5523 9 10C9 9.44772 8.55228 9 8 9C7.44772 9 7 9.44772 7 10C7 10.5523 7.44772 11 8 11Z" fill="#264B82"/>
<path fill-rule="evenodd" clip-rule="evenodd" d="M17 21C18.6569 21 20 19.6569 20 18C20 16.3431 18.6569 15 17 15C15.3431 15 14 16.3431 14 18C14 19.6569 15.3431 21 17 21ZM17 19C17.5523 19 18 18.5523 18 18C18 17.4477 17.5523 17 17 17C16.4477 17 16 17.4477 16 18C16 18.5523 16.4477 19 17 19Z" fill="#264B82"/>
<path fill-rule="evenodd" clip-rule="evenodd" d="M1 2C0.447715 2 0 2.44772 0 3C0 3.55228 0.447716 4 1 4H17H24C24.5523 4 25 3.55228 25 3C25 2.44772 24.5523 2 24 2H17H1ZM17 2C17.5523 2 18 2.44772 18 3C18 3.55228 17.5523 4 17 4C16.4477 4 16 3.55228 16 3C16 2.44772 16.4477 2 17 2Z" fill="#264B82"/>
</svg>
