<svg width="38" height="34" viewBox="0 0 38 34" fill="none" xmlns="http://www.w3.org/2000/svg">
<path d="M12.2432 22.266H12.245C12.2464 22.266 12.2479 22.2657 12.2493 22.2657H32.4337C32.9306 22.2657 33.3675 21.936 33.504 21.4582L37.9572 5.87228C38.0531 5.53626 37.9859 5.17503 37.7757 4.89613C37.5652 4.61723 37.2361 4.45313 36.8868 4.45313H9.67571L8.87988 0.871782C8.76653 0.362397 8.31483 0 7.79298 0H1.11328C0.498368 0 0 0.498368 0 1.11328C0 1.7282 0.498368 2.22657 1.11328 2.22657H6.90004C7.04094 2.8612 10.7084 19.365 10.9195 20.3145C9.7363 20.8288 8.90627 22.0085 8.90627 23.3789C8.90627 25.2205 10.4046 26.7188 12.2461 26.7188H32.4337C33.0486 26.7188 33.5469 26.2204 33.5469 25.6055C33.5469 24.9906 33.0486 24.4922 32.4337 24.4922H12.2461C11.6324 24.4922 11.1328 23.9927 11.1328 23.3789C11.1328 22.7661 11.6306 22.2674 12.2432 22.266ZM35.4108 6.6797L31.5938 20.0391H13.1391L10.1703 6.6797H35.4108Z" fill="#264B82"/>
<path d="M11.1328 30.0586C11.1328 31.9002 12.6311 33.3985 14.4727 33.3985C16.3142 33.3985 17.8125 31.9002 17.8125 30.0586C17.8125 28.2171 16.3142 26.7188 14.4727 26.7188C12.6311 26.7188 11.1328 28.2171 11.1328 30.0586ZM14.4727 28.9453C15.0864 28.9453 15.5859 29.4449 15.5859 30.0586C15.5859 30.6724 15.0864 31.1719 14.4727 31.1719C13.8589 31.1719 13.3594 30.6724 13.3594 30.0586C13.3594 29.4449 13.8589 28.9453 14.4727 28.9453Z" fill="#264B82"/>
<path d="M26.8672 30.0586C26.8672 31.9002 28.3655 33.3985 30.207 33.3985C32.0486 33.3985 33.5469 31.9002 33.5469 30.0586C33.5469 28.2171 32.0486 26.7188 30.207 26.7188C28.3655 26.7188 26.8672 28.2171 26.8672 30.0586ZM30.207 28.9453C30.8208 28.9453 31.3203 29.4449 31.3203 30.0586C31.3203 30.6724 30.8208 31.1719 30.207 31.1719C29.5933 31.1719 29.0938 30.6724 29.0938 30.0586C29.0938 29.4449 29.5933 28.9453 30.207 28.9453Z" fill="#264B82"/>
</svg>
