<svg width="32" height="40" viewBox="0 0 32 40" fill="none" xmlns="http://www.w3.org/2000/svg">
<path d="M30.08 0H21.12C20.0614 0 19.2 0.861438 19.2 1.92V3.19999C17.7882 3.19999 16.64 4.34815 16.64 5.75999C16.64 7.17183 17.7882 8.31998 19.2 8.31998V11.52H24.32V10.24C24.32 9.53406 24.8941 8.95998 25.6 8.95998C26.3059 8.95998 26.88 9.53406 26.88 10.24V11.52H30.08C31.1385 11.52 32 10.6585 32 9.59998V1.92C32 0.861438 31.1385 0 30.08 0ZM30.72 9.59998C30.72 9.95262 30.4333 10.24 30.08 10.24H28.16C28.16 8.82814 27.0118 7.67998 25.6 7.67998C24.1882 7.67998 23.04 8.82814 23.04 10.24H20.48V7.03999H19.2C18.4941 7.03999 17.92 6.46591 17.92 5.75999C17.92 5.05407 18.4941 4.47999 19.2 4.47999H20.48V1.92C20.48 1.56736 20.7667 1.28 21.12 1.28H30.08C30.4333 1.28 30.72 1.56736 30.72 1.92V9.59998Z" fill="#264B82"/>
<path d="M19.2 12.8C17.7881 12.8 16.64 13.9482 16.64 15.36H14.08V12.16H12.8C12.0941 12.16 11.52 11.5859 11.52 10.88C11.52 10.1741 12.0941 9.6 12.8 9.6H14.08V3.84001H12.3641C5.54687 3.84001 0 9.38688 0 16.2041C0 19.9277 1.65312 23.4157 4.53503 25.7734L7.03999 27.8233V29.5584C6.29695 29.8233 5.75999 30.5273 5.75999 31.3606C5.75999 32.2457 6.36479 32.9856 7.18079 33.2064C7.09183 33.4272 7.03999 33.6672 7.03999 33.92C7.03999 34.766 7.59359 35.4777 8.35454 35.7331C8.6195 37.9526 10.5107 39.6799 12.8 39.6799C15.0893 39.6799 16.9804 37.9526 17.2454 35.7331C18.0064 35.4777 18.56 34.766 18.56 33.92C18.56 33.6672 18.5081 33.4272 18.4192 33.2057C19.2352 32.9843 19.84 32.2451 19.84 31.36C19.84 30.5267 19.303 29.8227 18.56 29.5577V27.8227L21.0649 25.7728C23.9468 23.4157 25.6 19.9277 25.6 16.2041V15.36H21.76C21.76 13.9482 20.6118 12.8 19.2 12.8ZM12.3641 5.12001H12.8V8.32C11.3881 8.32 10.24 9.46816 10.24 10.88C10.24 12.2918 11.3881 13.44 12.8 13.44V15.36H10.24C10.24 13.9482 9.09182 12.8 7.67999 12.8C6.26815 12.8 5.11999 13.9482 5.11999 15.36H1.312C1.74464 9.64096 6.53631 5.12001 12.3641 5.12001ZM5.34527 24.7827C2.87423 22.7609 1.4112 19.8131 1.28896 16.64H6.39999V15.36C6.39999 14.6541 6.97407 14.08 7.67999 14.08C8.3859 14.08 8.95998 14.6541 8.95998 15.36V16.64H12.8V19.2C11.3881 19.2 10.24 20.3481 10.24 21.76C10.24 23.1718 11.3881 24.32 12.8 24.32V29.44H8.31998V27.2166L5.34527 24.7827ZM12.8 38.3999C11.255 38.3999 9.96222 37.2985 9.66462 35.8399H15.9353C15.6377 37.2985 14.3449 38.3999 12.8 38.3999ZM16.64 34.56H8.95998C8.6067 34.56 8.31998 34.2726 8.31998 33.92C8.31998 33.5673 8.6067 33.28 8.95998 33.28H16.64C16.9932 33.28 17.28 33.5673 17.28 33.92C17.28 34.2726 16.9932 34.56 16.64 34.56ZM17.92 32H16.64H8.95998H7.67999C7.32671 32 7.03999 31.7126 7.03999 31.36C7.03999 31.0073 7.32671 30.72 7.67999 30.72H17.92C18.2732 30.72 18.56 31.0073 18.56 31.36C18.56 31.7126 18.2732 32 17.92 32ZM20.2547 24.7827L17.28 27.2166V29.44H14.08V23.04H12.8C12.0941 23.04 11.52 22.4659 11.52 21.76C11.52 21.0541 12.0941 20.48 12.8 20.48H14.08V16.64H17.92V15.36C17.92 14.6541 18.494 14.08 19.2 14.08C19.9059 14.08 20.48 14.6541 20.48 15.36V16.64H24.311C24.1888 19.8131 22.7257 22.7609 20.2547 24.7827Z" fill="#264B82"/>
</svg>
